<?xml version="1.0" encoding="utf-8"?>
<!-- Generator: Adobe Illustrator 23.0.2, SVG Export Plug-In . SVG Version: 6.00 Build 0)  -->
<svg version="1.1" id="Layer_1" xmlns="http://www.w3.org/2000/svg" xmlns:xlink="http://www.w3.org/1999/xlink" x="0px" y="0px"
	 viewBox="0 0 60 60" style="enable-background:new 0 0 60 60;" xml:space="preserve">
<style type="text/css">
	.st0{fill-rule:evenodd;clip-rule:evenodd;fill:#FFFFFF;}
</style>
<path class="st0" d="M0.51,27.75c0.7-10,8.7-14.6,18.6-13.7c-0.7,3.7-0.3,6.1,0.8,7.7c0,0.6,0,1.1,0,1.7
	C12.11,22.55,3.51,22.85,0.51,27.75z M45.11,5.65c-0.3,0.9-0.4,1.7,0,2c-1.2,1.1-0.7,2.8,0.9,2.6c-0.1-0.1-0.2-0.2-0.2-0.3
	c-0.4-0.2-0.6-0.4-0.7-0.7c-0.1-0.4,0-0.9,0.5-1.1c0.6-0.3,1.4,0.3,1,1.3c0.1-0.8-0.3-1.1-0.6-1.1s-0.6,0.4-0.5,1
	c0.1,0.5,0.6,0.7,1,0.5c0.3-0.1,0.5-0.4,0.6-1c0.1,0,0.1,0,0.2-0.1c-0.1,0.9-0.6,1.2-1.3,1.3c1.1,0.7,2.1-0.9,1.5-2.1
	c-0.3-0.6-1-1-1.7-0.9c0.7,0.2,1.2,0.6,1.5,1.3c-0.1,0-0.1,0-0.2,0.1c-0.3-0.8-0.8-1.2-1.7-1c-0.2-0.6-0.1-1.2,0.1-1.8
	c1.6,0.3,3.2,0.7,4.7,1.2c1.6,0.5,1.7,2.2,0.6,3.9c-0.7,1.2-1.8,1.9-2.5,3.1c0.7-0.1,1.4,0,2.2-0.4c0.3-0.2,0.7-0.4,0.9-0.7
	c-0.7,0.6-1.5,0.8-2.3,0.6c0,0,0-0.1,0.1-0.1c1.2,0.3,2.5-0.3,2.6-1.4c0.1,0.4,0,0.8-0.3,1.1c-0.6,0.8-1.7,0.9-2.5,1.3
	c-0.9,0.5-1.5,1.1-2.4,2.1c-1.4,1.2-3.2,1.8-4.4,1.4c-1-0.3-1.5-1.3-1.6-3c0.1,0,0.3,0,0.4-0.1c0.3,4.1,3.9,3.2,5.7,1
	c-1.2,0.8-2.5,1.2-3.7,1.1c-1-0.2-1.7-1.2-1.9-3.1c-0.2,0.2-0.2,0.4-0.2,0.6c-0.1-0.1-0.2-0.1-0.3,0c0.1-1.7-0.2-3.2,0.1-4.4
	c0.2-0.7,0.4-1.2,0.9-1.5c-0.9,0.3-1.3,1-1.5,2.1c-0.4,2.6-1.2,7.2,1.6,8.4c0.8,0.4,1.9,0.3,3.2,0c1.8-0.4,2.5-1.7,3.5-2.7
	c0.7-0.7,1.6-1.1,2.8-1.8c1.6-0.9,1.5-2.7,0.3-3.2c0.7-1.1,0.9-2.2,0.8-3.1c-0.3-1.7-1.4-2-2.6-2.5c-7.6-2.9-15.1-3.3-21.9,2.5
	c-0.5-2.1-1.9-3.8-4.8-4.6c0.5,2.2,0.2,4-0.8,5.6c-2.2,3.7-3.8,8.5-1.5,12.7c-0.8,9.3,3.9,17.5,9.9,19.3c-2.9-3.1-5.2-7.1-6.3-12.5
	c0.5,0.5,1,1,1.1,1.8c0.1-0.8-0.2-1.5-0.7-2.2c0.4-0.4,0.9-0.6,1.5-0.6c0.2,0.3,0.3,0.6,0.2,0.8c0.1-0.2,0.2-0.5,0-0.8
	c0.1-0.1,0.2-0.1,0.4-0.1c-0.1-0.1-0.2-0.2-0.3-0.3c-0.2-1.2-0.6-2.3-1.1-3.4c0.8,0,1.5,0.1,2.1,0.4c0.1,0.4,0.1,0.8,0.1,1.1
	c0.2-0.3,0.2-0.7,0.2-1.1c0.2,0,0.3,0.1,0.5,0.3c-0.1-0.2-0.2-0.4-0.4-0.5c0-1.2-0.2-2.3-0.5-3.6c0.7,0.2,1.2,0.5,1.7,0.9
	c0.2,0.6,0.2,1.1,0.1,1.6c0.2-0.5,0.2-1,0.1-1.5c0.3,0.1,0.6,0.4,0.8,0.7c-0.1-0.4-0.3-0.7-0.7-1c0.2-1.5,0.2-3.2-0.1-4.7
	c1.1,0.6,2,1.3,2.7,2.1c0,0.8-0.1,1.6-0.2,2.4c0.2-0.5,0.4-1.2,0.5-2.2c0.3,0.4,0.6,0.8,0.8,1.2c-0.2-0.6-0.4-1.1-0.7-1.7
	c0.2-1.5,0.3-3.1,0.1-4.9c1,0.6,1.8,1.3,2.5,2c0,1.5-0.1,2.8-0.4,4c0.4-0.8,0.8-1.9,0.9-3.3c0.3,0.3,0.5,0.6,0.7,1
	c-0.1-0.5-0.3-1-0.6-1.5c0.2-1.6,0.2-3.3,0.1-5.1c0.8,0.5,1.4,1.1,2,1.7c0.2,1.5,0.1,2.9-0.1,4.3c0.4-0.9,0.7-2.1,0.8-3.5
	c0.4,0.3,0.6,0.7,0.7,1.2c0-0.5-0.3-1.1-0.6-1.7c0.1-1.4,0.2-2.9,0-4.4c0.1,0,0.2,0,0.3,0c0.3,0.4,0.4,0.8,0.5,1.3
	c0.1-0.5,0.1-0.9-0.1-1.4c0.4,0,0.8-0.1,1.1-0.2c0,0.4-0.1,0.9-0.2,1.2c0.3-0.4,0.5-0.8,0.6-1.2c0.8-0.1,1.5-0.1,2.2,0
	c0.3-0.7,0.5-1.4,0.9-2.1C44.11,5.45,44.61,5.55,45.11,5.65L45.11,5.65z M55.01,28.45c-5.8,3.3-13.3,3.1-19.7,0.5
	c0.8,4.3-2.2,5-5.9,5.7C37.61,40.25,50.41,38.45,55.01,28.45z M55.31,14.15c2.2,0.8,3.3,2.8,3.5,4.9c0.3,4.5-3.2,7.4-6.6,8.6
	c-5.2,1.9-12.2,1.1-17.4-0.8c-0.1-0.2-0.2-0.5-0.3-0.7c1.4-0.4,2.5-1.1,3.5-2c0.3,1.9,4.8,3.2,8.3,2.8c-0.4-1.8-0.8-3.4-1.6-5
	c4.6,1.1,8.6-0.1,10.4-1.9C56.81,18.65,56.81,16.65,55.31,14.15z M29.21,37.05c-1.2-1.5-2.1-3.1-1.9-5.1c0.3-0.9,0.9-1.3,1.6-1.8
	c1.1-0.6,1.9-1.6,2.5-2.8c0.5-0.7,1.1-1.2,2-1.4c0.7,1.8,0.6,3.5,0,5.2c-0.2,0.1-0.4,0.2-0.6,0.3c0.5-1.5,0.8-3,0.1-4.5
	c0.2,1.8-0.1,3.4-1.1,4.8c-0.4,0.2-0.8,0.4-1.2,0.6c0.1-0.3,0.2-0.5,0.4-0.8c1.1-0.5,1.6-1.7,1.6-3c-0.2,0.7-0.5,1.2-0.9,1.6
	c0.5-1.2,1-2.4,0.1-3.2c0.8,2.1-2.8,6-4.1,7.1c2,0.2,4.1-0.3,6.5-1.8c0.7-2,0.8-4.1-0.5-6.5c3.3-1,6-2.8,6.5-7.6
	c-1.1,2.9-3,4.4-5.3,5.2c-1.5,0.5-3.2,0.5-4.5,1.8c-1.2,1.2-1.2,2.6-2.4,3.3c-1.3,0.7-2.3,1.9-2.3,3.7
	C26.21,34.75,27.51,36.25,29.21,37.05L29.21,37.05z M45.71,26.25c-0.9-3.3-1.9-6.2-3.9-7.4c1.1,1.4,1.7,3.8,2.4,6.1
	c-0.3,0-0.5,0-0.8-0.1c-0.2-1.3-0.6-2.5-1.4-3.6c0.5,1.2,0.7,2.4,0.6,3.5c-0.2,0-0.4-0.1-0.6-0.1c0-0.9-0.1-1.8-0.7-2.8
	c0.2,0.9,0.2,1.9,0,2.7c-0.2-0.1-0.3-0.1-0.5-0.2c0.2-1.2,0.1-2.3-0.4-3.4c0.2,1.2,0,2.2-0.3,3.2c-0.2-0.1-0.4-0.2-0.6-0.3
	c0.3-0.7,0.5-1.5,0.2-2.5c0,0.8-0.2,1.5-0.6,2c-0.3,0.3-0.3,0.8,0.1,1.1C40.81,26.05,43.21,26.35,45.71,26.25L45.71,26.25z
	 M29.81,37.45c1.1,0.6,2.2,0.8,3.3,1c4.2,0.6,6.6,2.6,8.7,4.8c-1.4,1.2-2.8,2.1-4.2,2.7c-1.9,0.8-3.8,0.8-5.7,1.3
	c1.4,2.2,2.1,4.4,2.3,6.7c-5.8-1.6-7.5-7.5-6.4-13.6c0.4,5.4,1.5,8,2.6,9.7c0-0.6,0-1,0-1.6c-1.8-2.2-1.4-5.2-2.1-7.8
	c0.7,1.3,1,4.9,2.4,6.9c0.1-0.3,0.3-0.6,0.5-0.8c-1.6-1.7-1.6-4.2-2.4-6.2c1.2,1.1,0.8,4.3,3.1,5.8c0.5-0.3,1.1-0.3,1.6-0.5
	c-1.1-2.3-2.9-3.8-4.1-5.7c1.6,1.9,3.8,3.1,4.8,5.6c0.5-0.2,1.1-0.1,1.6-0.5c-1.3-3.5-5.2-4.4-5.7-5.9c1.3,1.1,3,1.8,4.2,2.8
	c1,0.9,1.8,1.8,2.3,2.8c0.4-0.2,0.9-0.3,1.1-0.6c-1.6-2.3-3.7-4.3-7-5.5c3.6,0.9,5.9,2.8,7.6,5.2c0.6-0.3,1.1-0.7,1.5-1.1
	c-1.7-1.6-3.7-2.8-6.1-3.6C32.41,38.95,30.81,38.65,29.81,37.45z M31.81,47.45c-0.8,0.7-1.1,1.7-1,3.1c0.6,0.8,1.4,1.3,2.3,1.7
	c-0.1-0.4-0.2-0.7-0.3-1.2c-0.8-0.6-1.4-1.2-1.7-2.1c0.5,0.5,1,1,1.5,1.2C32.41,49.25,32.21,48.35,31.81,47.45z M20.81,21.15
	c0.7-5.2,2.8-9.6,6.8-13.1c-0.6-1.4-1.7-2.4-3.2-2.9c0.1,0.5,0.1,0.8,0.1,1.2c1,0.6,1.7,1.4,1.9,2.3c-0.5-0.7-1-1.3-2.1-1.5
	c0,0.4-0.1,0.7-0.2,1.1c0.6,0.2,1.1,0.6,1.3,1.4c-0.4-0.5-0.9-0.7-1.6-0.7c-0.1,0.4-0.3,0.7-0.6,1c0.5,0.3,0.8,0.6,0.9,0.9
	c-0.3-0.4-0.8-0.4-1.3-0.4c-0.1,0.3-0.3,0.6-0.4,0.8c0.6,0.3,1,0.6,1.1,1c-0.4-0.4-0.9-0.4-1.4-0.2c0,0.3-0.2,0.6-0.4,0.9
	c0.4,0.1,0.7,0.4,1,0.7c-0.4-0.2-0.8-0.2-1.2-0.1c-0.1,0.3-0.2,0.6-0.3,0.9c0.4,0.1,0.8,0.4,0.9,0.8c-0.3-0.2-0.6-0.3-1.1-0.2
	c-0.1,0.4-0.2,0.7-0.3,1.1c0.3,0.1,0.6,0.4,0.7,0.9c-0.2-0.3-0.5-0.4-0.8-0.4C20.41,18.25,20.51,19.75,20.81,21.15L20.81,21.15z
	 M26.11,27.15c-0.4-1.1-1-2.1-1.7-3c-0.1,1.1,0.1,2.2,0,3.2C24.81,27.15,25.41,27.15,26.11,27.15z M27.31,23.85
	c-0.2-1.2-0.6-2.5-1.2-3.8c-0.3-0.1-0.5-0.2-0.8-0.2c-0.2,0.8-0.4,1.6-0.6,2.3c-0.1,0.3,0,0.6,0.2,0.6
	C25.71,23.05,26.61,23.35,27.31,23.85L27.31,23.85z M28.91,20.75c-0.1-1.7-0.3-3.4-1-5.1c-0.5,0.8-1,1.5-1.5,2.3
	c0.2,0.4,0.4,0.8,0.5,1.3C27.71,19.65,28.41,20.15,28.91,20.75L28.91,20.75z M31.81,17.65c-0.1-1.7-0.3-3.4-0.8-5
	c-0.4,0.4-1,0.5-1.3,1.2c-0.1,0.2-0.3,0.5-0.5,0.7c-0.3,0.3-0.1,0.5,0.1,0.6C30.21,15.85,31.11,16.65,31.81,17.65L31.81,17.65z
	 M32.11,11.95c0.3-0.4,0.6-0.8,1-1c0.4-0.3,0.8-0.4,1.1-0.8c0.3,1.5,0.5,2.9,0.6,4.4C34.11,13.65,33.31,12.75,32.11,11.95
	L32.11,11.95z M37.51,10.95c0-0.9-0.1-1.8-0.4-2.7c-0.5,0.3-1,0.4-1.5,0.9C36.41,9.75,37.01,10.35,37.51,10.95z M49.41,12.95
	c0.5-0.3,1-0.7,1.4-1.2c0.3,0,0.5,0.1,0.7,0.2C51.01,12.75,50.31,13.05,49.41,12.95L49.41,12.95z M23.61,27.05l-2.4-0.1v-2.1h0.6
	v1.2h0.4v-1h0.6v1h0.8V27.05L23.61,27.05z M21.71,24.45l-0.5-0.1l0.1-0.8l0.5,0.1L21.71,24.45z M23.71,24.65l-1.8-0.2l0.1-0.8
	l1.8,0.2L23.71,24.65z M23.21,23.35l0.1-0.8c0.1,0,0.1,0,0.2,0c0,0,0.1-0.1,0.1-0.2s0-0.1,0-0.2s0-0.1-0.1-0.1s-0.2,0.1-0.2,0.3l0,0
	c-0.1,0.4-0.3,0.6-0.4,0.7s-0.2,0.1-0.4,0.1c-0.2,0-0.3-0.2-0.4-0.4c-0.1-0.2-0.1-0.4,0-0.8c0.1-0.3,0.1-0.5,0.3-0.7
	c0.1-0.1,0.3-0.2,0.5-0.2l-0.1,0.7c-0.1,0-0.1,0-0.1,0s-0.1,0.1-0.1,0.2s0,0.1,0,0.2c0,0,0,0.1,0.1,0.1s0.1-0.1,0.2-0.2v-0.1
	c0.1-0.3,0.3-0.6,0.4-0.7s0.2-0.1,0.4-0.1c0.2,0,0.3,0.2,0.4,0.4c0.1,0.2,0.1,0.5,0,0.8s-0.2,0.6-0.3,0.7
	C23.61,23.35,23.41,23.45,23.21,23.35L23.21,23.35z M24.21,21.15l-2.3-0.8l0.2-0.8l0.8,0.3c-0.1-0.1-0.1-0.2-0.1-0.3
	c0-0.1,0-0.2,0-0.4c0-0.1,0.1-0.2,0.1-0.3c0.1-0.1,0.1-0.1,0.2-0.2c0.1,0,0.2,0,0.3,0c0.1,0,0.2,0,0.4,0.1l0.9,0.3l-0.2,0.8
	l-0.9-0.3c-0.1,0-0.2-0.1-0.3,0c-0.1,0-0.1,0.1-0.1,0.2s0,0.2,0,0.2c0,0.1,0.1,0.1,0.2,0.2l0.9,0.3L24.21,21.15L24.21,21.15z
	 M23.71,16.45l-0.4-0.3l0.3-0.7l0.4,0.3L23.71,16.45L23.71,16.45z M25.41,17.45l-1.6-1l0.3-0.7l1.6,1L25.41,17.45z M26.01,16.35
	l-1.5-1.1l0.4-0.6l0.2,0.2c0-0.1-0.1-0.3,0-0.4c0-0.1,0.1-0.3,0.1-0.4c0.1-0.1,0.1-0.2,0.2-0.2c0.1-0.1,0.2-0.1,0.3-0.1
	c0.1,0,0.2,0,0.3,0c0.1,0,0.2,0.1,0.4,0.3l0.8,0.6l-0.4,0.7l-0.8-0.6c-0.1-0.1-0.2-0.1-0.3-0.1c-0.1,0-0.1,0-0.2,0.1
	c0,0.1-0.1,0.2,0,0.2c0,0.1,0.1,0.2,0.2,0.2l0.8,0.6C26.41,15.65,26.01,16.35,26.01,16.35z M28.41,11.65c0,0.1-0.1,0.2-0.1,0.3
	c-0.1,0.2-0.1,0.3-0.1,0.4l0.1,0.1c0,0,0.1,0,0.1-0.1c0.1-0.1,0.1-0.2,0.1-0.3C28.61,11.95,28.51,11.85,28.41,11.65
	C28.41,11.75,28.41,11.75,28.41,11.65L28.41,11.65z M29.01,12.35l-0.1-0.1c0,0.1,0,0.3-0.1,0.4c-0.1,0.1-0.1,0.2-0.2,0.3
	c-0.1,0.2-0.3,0.2-0.4,0.2s-0.3-0.1-0.4-0.2c-0.1-0.1-0.2-0.3-0.1-0.5c0-0.2,0.1-0.4,0.3-0.6l0.1-0.1c0.1-0.2,0.2-0.3,0.1-0.4
	c0,0-0.1-0.1-0.1,0c0,0-0.1,0.1-0.2,0.1c-0.2-0.1-0.2,0-0.2,0.1c0,0.1,0,0.1,0,0.2l-0.5,0.5c-0.1-0.2-0.2-0.4-0.1-0.6
	c0.1-0.2,0.2-0.4,0.4-0.7c0.1-0.1,0.2-0.2,0.3-0.3c0.1-0.1,0.2-0.1,0.3-0.1c0.1,0,0.2,0,0.3,0c0.1,0,0.2,0.1,0.2,0.2l0.7,0.8
	c0,0,0,0,0.1,0.1h0.1l0,0L29.01,12.35L29.01,12.35z M30.71,10.75l-1.3-2.4l1.5-1.1l0.3,0.6l-0.9,0.6l0.2,0.4l0.7-0.5l0.3,0.6
	l-0.7,0.5l0.4,0.8L30.71,10.75L30.71,10.75z M32.41,9.45l-1.1-2.5l0.6-0.4l1.1,2.5L32.41,9.45L32.41,9.45z M34.21,7.55
	c-0.1,0.1-0.1,0.1-0.2,0.2s-0.2,0.2-0.2,0.3s0.1,0.1,0.1,0.1s0.1,0,0.2,0c0.1-0.1,0.2-0.1,0.2-0.2C34.31,7.85,34.31,7.75,34.21,7.55
	C34.31,7.55,34.21,7.55,34.21,7.55L34.21,7.55z M34.61,8.35l-0.1-0.2c-0.1,0.1-0.1,0.2-0.2,0.3s-0.2,0.2-0.3,0.2
	c-0.2,0.1-0.3,0.1-0.5,0c-0.1-0.1-0.2-0.2-0.3-0.4s-0.1-0.3,0-0.5c0.1-0.1,0.2-0.3,0.5-0.5l0.1-0.1c0.2-0.1,0.3-0.2,0.2-0.3
	c0-0.1-0.1-0.1-0.1-0.1s-0.1,0-0.2,0s-0.1,0.1-0.1,0.1s0,0.1,0,0.2l-0.6,0.3c-0.1-0.2-0.1-0.4,0.1-0.6c0.1-0.2,0.3-0.3,0.6-0.5
	c0.1-0.1,0.3-0.1,0.4-0.1s0.2,0,0.3,0s0.2,0.1,0.2,0.1c0.1,0.1,0.1,0.2,0.2,0.3l0.4,1c0,0,0,0.1,0.1,0.1c0,0,0,0,0.1,0v0.1
	L34.61,8.35L34.61,8.35z M35.31,7.35l0.7-0.2c0,0.1,0.1,0.1,0.1,0.2c0,0,0.1,0,0.2,0s0.1-0.1,0.1-0.1v-0.1c0-0.1-0.1-0.1-0.3-0.1
	l0,0c-0.3,0-0.6,0-0.7,0c-0.1-0.1-0.2-0.2-0.3-0.3c-0.1-0.2,0-0.4,0.1-0.6s0.3-0.3,0.6-0.4c0.3-0.1,0.5-0.1,0.6-0.1
	c0.2,0,0.3,0.2,0.4,0.4l-0.6,0.2c0-0.1-0.1-0.1-0.1-0.1s-0.1,0-0.2,0s-0.1,0.1-0.1,0.1v0.1c0,0.1,0.1,0.1,0.3,0.1h0.1
	c0.3,0,0.6,0,0.7,0c0.1,0.1,0.2,0.2,0.3,0.3c0.1,0.2,0,0.4-0.1,0.6s-0.3,0.3-0.6,0.4c-0.3,0.1-0.5,0.1-0.7,0.1
	C35.51,7.65,35.41,7.55,35.31,7.35L35.31,7.35z M37.51,7.15l-0.6-2.7l0.7-0.2l0.2,0.9c0.1-0.1,0.1-0.2,0.2-0.3s0.2-0.1,0.3-0.1
	s0.2,0,0.3,0s0.2,0.1,0.3,0.1c0.1,0.1,0.1,0.1,0.2,0.2c0,0.1,0.1,0.3,0.1,0.5l0.2,1l-0.7,0.3l-0.2-1c0-0.2-0.1-0.2-0.1-0.3
	c0,0-0.1-0.1-0.2,0c-0.1,0-0.1,0.1-0.2,0.2c0,0.1,0,0.2,0,0.3l0.2,1L37.51,7.15L37.51,7.15z"/>
</svg>
