<?xml version="1.0" encoding="utf-8"?>
<!-- Generator: Adobe Illustrator 23.0.2, SVG Export Plug-In . SVG Version: 6.00 Build 0)  -->
<svg version="1.1" id="Layer_1" xmlns:xodm="http://www.corel.com/coreldraw/odm/2003"
	 xmlns="http://www.w3.org/2000/svg" xmlns:xlink="http://www.w3.org/1999/xlink" x="0px" y="0px" viewBox="0 0 227.9 90.1"
	 style="enable-background:new 0 0 227.9 90.1;" xml:space="preserve">
<style type="text/css">
	.st0{fill-rule:evenodd;clip-rule:evenodd;fill:#282829;}
	.st1{enable-background:new    ;}
	.st2{fill:#00AFEF;}
	.st3{fill:#282829;}
	.st4{fill-rule:evenodd;clip-rule:evenodd;fill:#FEFEFE;}
	.st5{fill-rule:evenodd;clip-rule:evenodd;fill:#00AFEF;}
</style>
<g id="Layer_x0020_1">
	<g id="_1702661189968">
		<path class="st0" d="M84.8,24.4c0.7-10,8.7-14.6,18.6-13.7c-0.7,3.7-0.3,6.1,0.8,7.7c0,0.6,0,1.1,0,1.7
			C96.4,19.2,87.8,19.5,84.8,24.4z M129.4,2.3c-0.3,0.9-0.4,1.7,0,2c-1.2,1.1-0.7,2.8,0.9,2.6c-0.1-0.1-0.2-0.2-0.2-0.3
			c-0.4-0.2-0.6-0.4-0.7-0.7c-0.1-0.4,0-0.9,0.5-1.1c0.6-0.3,1.4,0.3,1,1.3c0.1-0.8-0.3-1.1-0.6-1.1s-0.6,0.4-0.5,1
			c0.1,0.5,0.6,0.7,1,0.5c0.3-0.1,0.5-0.4,0.6-1c0.1,0,0.1,0,0.2-0.1c-0.1,0.9-0.6,1.2-1.3,1.3c1.1,0.7,2.1-0.9,1.5-2.1
			c-0.3-0.6-1-1-1.7-0.9c0.7,0.2,1.2,0.6,1.5,1.3c-0.1,0-0.1,0-0.2,0.1c-0.3-0.8-0.8-1.2-1.7-1c-0.2-0.6-0.1-1.2,0.1-1.8
			c1.6,0.3,3.2,0.7,4.7,1.2c1.6,0.5,1.7,2.2,0.6,3.9c-0.7,1.2-1.8,1.9-2.5,3.1c0.7-0.1,1.4,0,2.2-0.4c0.3-0.2,0.7-0.4,0.9-0.7
			c-0.7,0.6-1.5,0.8-2.3,0.6c0,0,0-0.1,0.1-0.1c1.2,0.3,2.5-0.3,2.6-1.4c0.1,0.4,0,0.8-0.3,1.1c-0.6,0.8-1.7,0.9-2.5,1.3
			c-0.9,0.5-1.5,1.1-2.4,2.1c-1.4,1.2-3.2,1.8-4.4,1.4c-1-0.3-1.5-1.3-1.6-3c0.1,0,0.3,0,0.4-0.1c0.3,4.1,3.9,3.2,5.7,1
			c-1.2,0.8-2.5,1.2-3.7,1.1c-1-0.2-1.7-1.2-1.9-3.1c-0.2,0.2-0.2,0.4-0.2,0.6c-0.1-0.1-0.2-0.1-0.3,0c0.1-1.7-0.2-3.2,0.1-4.4
			c0.2-0.7,0.4-1.2,0.9-1.5c-0.9,0.3-1.3,1-1.5,2.1c-0.4,2.6-1.2,7.2,1.6,8.4c0.8,0.4,1.9,0.3,3.2,0c1.8-0.4,2.5-1.7,3.5-2.7
			c0.7-0.7,1.6-1.1,2.8-1.8c1.6-0.9,1.5-2.7,0.3-3.2c0.7-1.1,0.9-2.2,0.8-3.1c-0.3-1.7-1.4-2-2.6-2.5c-7.6-2.9-15.1-3.3-21.9,2.5
			c-0.5-2.1-1.9-3.8-4.8-4.6c0.5,2.2,0.2,4-0.8,5.6c-2.2,3.7-3.8,8.5-1.5,12.7c-0.8,9.3,3.9,17.5,9.9,19.3
			c-2.9-3.1-5.2-7.1-6.3-12.5c0.5,0.5,1,1,1.1,1.8c0.1-0.8-0.2-1.5-0.7-2.2c0.4-0.4,0.9-0.6,1.5-0.6c0.2,0.3,0.3,0.6,0.2,0.8
			c0.1-0.2,0.2-0.5,0-0.8c0.1-0.1,0.2-0.1,0.4-0.1c-0.1-0.1-0.2-0.2-0.3-0.3c-0.2-1.2-0.6-2.3-1.1-3.4c0.8,0,1.5,0.1,2.1,0.4
			c0.1,0.4,0.1,0.8,0.1,1.1c0.2-0.3,0.2-0.7,0.2-1.1c0.2,0,0.3,0.1,0.5,0.3c-0.1-0.2-0.2-0.4-0.4-0.5c0-1.2-0.2-2.3-0.5-3.6
			c0.7,0.2,1.2,0.5,1.7,0.9c0.2,0.6,0.2,1.1,0.1,1.6c0.2-0.5,0.2-1,0.1-1.5c0.3,0.1,0.6,0.4,0.8,0.7c-0.1-0.4-0.3-0.7-0.7-1
			c0.2-1.5,0.2-3.2-0.1-4.7c1.1,0.6,2,1.3,2.7,2.1c0,0.8-0.1,1.6-0.2,2.4c0.2-0.5,0.4-1.2,0.5-2.2c0.3,0.4,0.6,0.8,0.8,1.2
			c-0.2-0.6-0.4-1.1-0.7-1.7c0.2-1.5,0.3-3.1,0.1-4.9c1,0.6,1.8,1.3,2.5,2c0,1.5-0.1,2.8-0.4,4c0.4-0.8,0.8-1.9,0.9-3.3
			c0.3,0.3,0.5,0.6,0.7,1c-0.1-0.5-0.3-1-0.6-1.5c0.2-1.6,0.2-3.3,0.1-5.1c0.8,0.5,1.4,1.1,2,1.7c0.2,1.5,0.1,2.9-0.1,4.3
			c0.4-0.9,0.7-2.1,0.8-3.5c0.4,0.3,0.6,0.7,0.7,1.2c0-0.5-0.3-1.1-0.6-1.7c0.1-1.4,0.2-2.9,0-4.4c0.1,0,0.2,0,0.3,0
			c0.3,0.4,0.4,0.8,0.5,1.3c0.1-0.5,0.1-0.9-0.1-1.4c0.4,0,0.8-0.1,1.1-0.2c0,0.4-0.1,0.9-0.2,1.2c0.3-0.4,0.5-0.8,0.6-1.2
			c0.8-0.1,1.5-0.1,2.2,0c0.3-0.7,0.5-1.4,0.9-2.1C128.4,2.1,128.9,2.2,129.4,2.3L129.4,2.3z M139.3,25.1
			c-5.8,3.3-13.3,3.1-19.7,0.5c0.8,4.3-2.2,5-5.9,5.7C121.9,36.9,134.7,35.1,139.3,25.1z M139.6,10.8c2.2,0.8,3.3,2.8,3.5,4.9
			c0.3,4.5-3.2,7.4-6.6,8.6c-5.2,1.9-12.2,1.1-17.4-0.8c-0.1-0.2-0.2-0.5-0.3-0.7c1.4-0.4,2.5-1.1,3.5-2c0.3,1.9,4.8,3.2,8.3,2.8
			c-0.4-1.8-0.8-3.4-1.6-5c4.6,1.1,8.6-0.1,10.4-1.9C141.1,15.3,141.1,13.3,139.6,10.8z M113.5,33.7c-1.2-1.5-2.1-3.1-1.9-5.1
			c0.3-0.9,0.9-1.3,1.6-1.8c1.1-0.6,1.9-1.6,2.5-2.8c0.5-0.7,1.1-1.2,2-1.4c0.7,1.8,0.6,3.5,0,5.2c-0.2,0.1-0.4,0.2-0.6,0.3
			c0.5-1.5,0.8-3,0.1-4.5c0.2,1.8-0.1,3.4-1.1,4.8c-0.4,0.2-0.8,0.4-1.2,0.6c0.1-0.3,0.2-0.5,0.4-0.8c1.1-0.5,1.6-1.7,1.6-3
			c-0.2,0.7-0.5,1.2-0.9,1.6c0.5-1.2,1-2.4,0.1-3.2c0.8,2.1-2.8,6-4.1,7.1c2,0.2,4.1-0.3,6.5-1.8c0.7-2,0.8-4.1-0.5-6.5
			c3.3-1,6-2.8,6.5-7.6c-1.1,2.9-3,4.4-5.3,5.2c-1.5,0.5-3.2,0.5-4.5,1.8c-1.2,1.2-1.2,2.6-2.4,3.3c-1.3,0.7-2.3,1.9-2.3,3.7
			C110.5,31.4,111.8,32.9,113.5,33.7L113.5,33.7z M130,22.9c-0.9-3.3-1.9-6.2-3.9-7.4c1.1,1.4,1.7,3.8,2.4,6.1c-0.3,0-0.5,0-0.8-0.1
			c-0.2-1.3-0.6-2.5-1.4-3.6c0.5,1.2,0.7,2.4,0.6,3.5c-0.2,0-0.4-0.1-0.6-0.1c0-0.9-0.1-1.8-0.7-2.8c0.2,0.9,0.2,1.9,0,2.7
			c-0.2-0.1-0.3-0.1-0.5-0.2c0.2-1.2,0.1-2.3-0.4-3.4c0.2,1.2,0,2.2-0.3,3.2c-0.2-0.1-0.4-0.2-0.6-0.3c0.3-0.7,0.5-1.5,0.2-2.5
			c0,0.8-0.2,1.5-0.6,2c-0.3,0.3-0.3,0.8,0.1,1.1C125.1,22.7,127.5,23,130,22.9L130,22.9z M114.1,34.1c1.1,0.6,2.2,0.8,3.3,1
			c4.2,0.6,6.6,2.6,8.7,4.8c-1.4,1.2-2.8,2.1-4.2,2.7c-1.9,0.8-3.8,0.8-5.7,1.3c1.4,2.2,2.1,4.4,2.3,6.7c-5.8-1.6-7.5-7.5-6.4-13.6
			c0.4,5.4,1.5,8,2.6,9.7c0-0.6,0-1,0-1.6c-1.8-2.2-1.4-5.2-2.1-7.8c0.7,1.3,1,4.9,2.4,6.9c0.1-0.3,0.3-0.6,0.5-0.8
			c-1.6-1.7-1.6-4.2-2.4-6.2c1.2,1.1,0.8,4.3,3.1,5.8c0.5-0.3,1.1-0.3,1.6-0.5c-1.1-2.3-2.9-3.8-4.1-5.7c1.6,1.9,3.8,3.1,4.8,5.6
			c0.5-0.2,1.1-0.1,1.6-0.5c-1.3-3.5-5.2-4.4-5.7-5.9c1.3,1.1,3,1.8,4.2,2.8c1,0.9,1.8,1.8,2.3,2.8c0.4-0.2,0.9-0.3,1.1-0.6
			c-1.6-2.3-3.7-4.3-7-5.5c3.6,0.9,5.9,2.8,7.6,5.2c0.6-0.3,1.1-0.7,1.5-1.1c-1.7-1.6-3.7-2.8-6.1-3.6
			C116.7,35.6,115.1,35.3,114.1,34.1z M116.1,44.1c-0.8,0.7-1.1,1.7-1,3.1c0.6,0.8,1.4,1.3,2.3,1.7c-0.1-0.4-0.2-0.7-0.3-1.2
			c-0.8-0.6-1.4-1.2-1.7-2.1c0.5,0.5,1,1,1.5,1.2C116.7,45.9,116.5,45,116.1,44.1z M105.1,17.8c0.7-5.2,2.8-9.6,6.8-13.1
			c-0.6-1.4-1.7-2.4-3.2-2.9c0.1,0.5,0.1,0.8,0.1,1.2c1,0.6,1.7,1.4,1.9,2.3c-0.5-0.7-1-1.3-2.1-1.5c0,0.4-0.1,0.7-0.2,1.1
			c0.6,0.2,1.1,0.6,1.3,1.4c-0.4-0.5-0.9-0.7-1.6-0.7c-0.1,0.4-0.3,0.7-0.6,1c0.5,0.3,0.8,0.6,0.9,0.9c-0.3-0.4-0.8-0.4-1.3-0.4
			c-0.1,0.3-0.3,0.6-0.4,0.8c0.6,0.3,1,0.6,1.1,1c-0.4-0.4-0.9-0.4-1.4-0.2c0,0.3-0.2,0.6-0.4,0.9c0.4,0.1,0.7,0.4,1,0.7
			c-0.4-0.2-0.8-0.2-1.2-0.1c-0.1,0.3-0.2,0.6-0.3,0.9c0.4,0.1,0.8,0.4,0.9,0.8c-0.3-0.2-0.6-0.3-1.1-0.2c-0.1,0.4-0.2,0.7-0.3,1.1
			c0.3,0.1,0.6,0.4,0.7,0.9c-0.2-0.3-0.5-0.4-0.8-0.4C104.7,14.9,104.8,16.4,105.1,17.8L105.1,17.8z M110.4,23.8
			c-0.4-1.1-1-2.1-1.7-3c-0.1,1.1,0.1,2.2,0,3.2C109.1,23.8,109.7,23.8,110.4,23.8z M111.6,20.5c-0.2-1.2-0.6-2.5-1.2-3.8
			c-0.3-0.1-0.5-0.2-0.8-0.2c-0.2,0.8-0.4,1.6-0.6,2.3c-0.1,0.3,0,0.6,0.2,0.6C110,19.7,110.9,20,111.6,20.5L111.6,20.5z
			 M113.2,17.4c-0.1-1.7-0.3-3.4-1-5.1c-0.5,0.8-1,1.5-1.5,2.3c0.2,0.4,0.4,0.8,0.5,1.3C112,16.3,112.7,16.8,113.2,17.4L113.2,17.4z
			 M116.1,14.3c-0.1-1.7-0.3-3.4-0.8-5c-0.4,0.4-1,0.5-1.3,1.2c-0.1,0.2-0.3,0.5-0.5,0.7c-0.3,0.3-0.1,0.5,0.1,0.6
			C114.5,12.5,115.4,13.3,116.1,14.3L116.1,14.3z M116.4,8.6c0.3-0.4,0.6-0.8,1-1c0.4-0.3,0.8-0.4,1.1-0.8c0.3,1.5,0.5,2.9,0.6,4.4
			C118.4,10.3,117.6,9.4,116.4,8.6L116.4,8.6z M121.8,7.6c0-0.9-0.1-1.8-0.4-2.7c-0.5,0.3-1,0.4-1.5,0.9
			C120.7,6.4,121.3,7,121.8,7.6z M133.7,9.6c0.5-0.3,1-0.7,1.4-1.2c0.3,0,0.5,0.1,0.7,0.2C135.3,9.4,134.6,9.7,133.7,9.6L133.7,9.6z
			 M107.9,23.7l-2.4-0.1v-2.1h0.6v1.2h0.4v-1h0.6v1h0.8V23.7L107.9,23.7z M106,21.1l-0.5-0.1l0.1-0.8l0.5,0.1L106,21.1z M108,21.3
			l-1.8-0.2l0.1-0.8l1.8,0.2L108,21.3z M107.5,20l0.1-0.8c0.1,0,0.1,0,0.2,0c0,0,0.1-0.1,0.1-0.2s0-0.1,0-0.2s0-0.1-0.1-0.1
			s-0.2,0.1-0.2,0.3l0,0c-0.1,0.4-0.3,0.6-0.4,0.7s-0.2,0.1-0.4,0.1c-0.2,0-0.3-0.2-0.4-0.4c-0.1-0.2-0.1-0.4,0-0.8
			c0.1-0.3,0.1-0.5,0.3-0.7c0.1-0.1,0.3-0.2,0.5-0.2l-0.1,0.7c-0.1,0-0.1,0-0.1,0s-0.1,0.1-0.1,0.2s0,0.1,0,0.2c0,0,0,0.1,0.1,0.1
			s0.1-0.1,0.2-0.2v-0.1c0.1-0.3,0.3-0.6,0.4-0.7s0.2-0.1,0.4-0.1c0.2,0,0.3,0.2,0.4,0.4c0.1,0.2,0.1,0.5,0,0.8s-0.2,0.6-0.3,0.7
			C107.9,20,107.7,20.1,107.5,20L107.5,20z M108.5,17.8l-2.3-0.8l0.2-0.8l0.8,0.3c-0.1-0.1-0.1-0.2-0.1-0.3c0-0.1,0-0.2,0-0.4
			c0-0.1,0.1-0.2,0.1-0.3c0.1-0.1,0.1-0.1,0.2-0.2c0.1,0,0.2,0,0.3,0c0.1,0,0.2,0,0.4,0.1l0.9,0.3l-0.2,0.8l-0.9-0.3
			c-0.1,0-0.2-0.1-0.3,0c-0.1,0-0.1,0.1-0.1,0.2s0,0.2,0,0.2c0,0.1,0.1,0.1,0.2,0.2l0.9,0.3L108.5,17.8L108.5,17.8z M108,13.1
			l-0.4-0.3l0.3-0.7l0.4,0.3L108,13.1L108,13.1z M109.7,14.1l-1.6-1l0.3-0.7l1.6,1L109.7,14.1z M110.3,13l-1.5-1.1l0.4-0.6l0.2,0.2
			c0-0.1-0.1-0.3,0-0.4c0-0.1,0.1-0.3,0.1-0.4c0.1-0.1,0.1-0.2,0.2-0.2c0.1-0.1,0.2-0.1,0.3-0.1c0.1,0,0.2,0,0.3,0
			c0.1,0,0.2,0.1,0.4,0.3l0.8,0.6l-0.4,0.7l-0.8-0.6c-0.1-0.1-0.2-0.1-0.3-0.1c-0.1,0-0.1,0-0.2,0.1c0,0.1-0.1,0.2,0,0.2
			c0,0.1,0.1,0.2,0.2,0.2l0.8,0.6C110.7,12.3,110.3,13,110.3,13z M112.7,8.3c0,0.1-0.1,0.2-0.1,0.3c-0.1,0.2-0.1,0.3-0.1,0.4
			l0.1,0.1c0,0,0.1,0,0.1-0.1c0.1-0.1,0.1-0.2,0.1-0.3C112.9,8.6,112.8,8.5,112.7,8.3C112.7,8.4,112.7,8.4,112.7,8.3L112.7,8.3z
			 M113.3,9l-0.1-0.1c0,0.1,0,0.3-0.1,0.4c-0.1,0.1-0.1,0.2-0.2,0.3c-0.1,0.2-0.3,0.2-0.4,0.2s-0.3-0.1-0.4-0.2
			c-0.1-0.1-0.2-0.3-0.1-0.5c0-0.2,0.1-0.4,0.3-0.6l0.1-0.1c0.1-0.2,0.2-0.3,0.1-0.4c0,0-0.1-0.1-0.1,0c0,0-0.1,0.1-0.2,0.1
			C112,8,112,8.1,112,8.2c0,0.1,0,0.1,0,0.2l-0.5,0.5c-0.1-0.2-0.2-0.4-0.1-0.6c0.1-0.2,0.2-0.4,0.4-0.7c0.1-0.1,0.2-0.2,0.3-0.3
			c0.1-0.1,0.2-0.1,0.3-0.1c0.1,0,0.2,0,0.3,0c0.1,0,0.2,0.1,0.2,0.2l0.7,0.8c0,0,0,0,0.1,0.1h0.1l0,0L113.3,9L113.3,9z M115,7.4
			L113.7,5l1.5-1.1l0.3,0.6l-0.9,0.6l0.2,0.4l0.7-0.5l0.3,0.6l-0.7,0.5l0.4,0.8L115,7.4L115,7.4z M116.7,6.1l-1.1-2.5l0.6-0.4
			l1.1,2.5L116.7,6.1L116.7,6.1z M118.5,4.2c-0.1,0.1-0.1,0.1-0.2,0.2s-0.2,0.2-0.2,0.3c0,0.1,0.1,0.1,0.1,0.1s0.1,0,0.2,0
			c0.1-0.1,0.2-0.1,0.2-0.2S118.6,4.4,118.5,4.2C118.6,4.2,118.5,4.2,118.5,4.2L118.5,4.2z M118.9,5l-0.1-0.2
			c-0.1,0.1-0.1,0.2-0.2,0.3c-0.1,0.1-0.2,0.2-0.3,0.2c-0.2,0.1-0.3,0.1-0.5,0c-0.1-0.1-0.2-0.2-0.3-0.4c-0.1-0.2-0.1-0.3,0-0.5
			c0.1-0.1,0.2-0.3,0.5-0.5l0.1-0.1c0.2-0.1,0.3-0.2,0.2-0.3c0-0.1-0.1-0.1-0.1-0.1s-0.1,0-0.2,0s-0.1,0.1-0.1,0.1s0,0.1,0,0.2
			L117.3,4c-0.1-0.2-0.1-0.4,0.1-0.6c0.1-0.2,0.3-0.3,0.6-0.5c0.1-0.1,0.3-0.1,0.4-0.1s0.2,0,0.3,0c0.1,0,0.2,0.1,0.2,0.1
			c0.1,0.1,0.1,0.2,0.2,0.3l0.4,1c0,0,0,0.1,0.1,0.1c0,0,0,0,0.1,0v0.1L118.9,5L118.9,5z M119.6,4l0.7-0.2c0,0.1,0.1,0.1,0.1,0.2
			c0,0,0.1,0,0.2,0s0.1-0.1,0.1-0.1V3.8c0-0.1-0.1-0.1-0.3-0.1l0,0c-0.3,0-0.6,0-0.7,0c-0.1-0.1-0.2-0.2-0.3-0.3
			c-0.1-0.2,0-0.4,0.1-0.6s0.3-0.3,0.6-0.4c0.3-0.1,0.5-0.1,0.6-0.1c0.2,0,0.3,0.2,0.4,0.4l-0.6,0.2c0-0.1-0.1-0.1-0.1-0.1
			s-0.1,0-0.2,0s-0.1,0.1-0.1,0.1V3c0,0.1,0.1,0.1,0.3,0.1h0.1c0.3,0,0.6,0,0.7,0c0.1,0.1,0.2,0.2,0.3,0.3c0.1,0.2,0,0.4-0.1,0.6
			s-0.3,0.3-0.6,0.4c-0.3,0.1-0.5,0.1-0.7,0.1C119.8,4.3,119.7,4.2,119.6,4L119.6,4z M121.8,3.8l-0.6-2.7l0.7-0.2l0.2,0.9
			c0.1-0.1,0.1-0.2,0.2-0.3s0.2-0.1,0.3-0.1c0.1,0,0.2,0,0.3,0c0.1,0,0.2,0.1,0.3,0.1c0.1,0.1,0.1,0.1,0.2,0.2
			c0,0.1,0.1,0.3,0.1,0.5l0.2,1L123,3.5l-0.2-1c0-0.2-0.1-0.2-0.1-0.3c0,0-0.1-0.1-0.2,0c-0.1,0-0.1,0.1-0.2,0.2c0,0.1,0,0.2,0,0.3
			l0.2,1L121.8,3.8L121.8,3.8z"/>
		<g transform="matrix(0.893564 0 0 1 -1451.35 614.189)">
			<g class="st1">
				<path class="st2" d="M1624.2-524.9v-31.4h23.8v7.9h-13.7v4.9h10.9v7.6h-10.9v11H1624.2z"/>
				<path class="st2" d="M1651.6-550.5v-6.6h9.3v6.6H1651.6z M1651.6-524.9v-23.2h9.3v23.2H1651.6z"/>
				<path class="st2" d="M1664.9-532.2h9c0,1,0.3,1.7,0.8,2.2c0.5,0.5,1.3,0.7,2.3,0.7c1,0,1.7-0.2,2.2-0.5c0.5-0.3,0.8-0.8,0.8-1.4
					c0-1-1.1-1.8-3.4-2.3c-0.2,0-0.4-0.1-0.5-0.1c-4.3-0.9-7.2-1.9-8.5-3c-1.3-1.1-2-2.6-2-4.7c0-2.5,1-4.4,2.9-5.7s4.8-2,8.5-2
					c3.5,0,6.1,0.6,8,1.8c1.9,1.2,3,3,3.3,5.5h-8.3c-0.1-0.7-0.4-1.3-0.9-1.7c-0.5-0.4-1.2-0.6-2-0.6c-0.8,0-1.4,0.1-1.9,0.4
					c-0.4,0.3-0.6,0.7-0.6,1.2c0,0.9,1,1.6,3.1,2c0.6,0.1,1,0.2,1.3,0.3c4.2,1,6.9,2,8.2,3.1c1.3,1.1,1.9,2.7,1.9,4.8
					c0,2.7-1,4.7-3.1,6c-2.1,1.4-5.1,2-9.2,2c-3.8,0-6.6-0.7-8.6-2C1666.2-527.5,1665.1-529.5,1664.9-532.2z"/>
				<path class="st2" d="M1692.8-524.9v-31.4h9.2v10.7c0.9-1,2-1.8,3.2-2.3s2.5-0.8,3.9-0.8c1.5,0,2.8,0.2,3.9,0.7
					c1.1,0.5,2.1,1.2,2.9,2.1c0.7,0.8,1.2,1.9,1.5,3.1c0.3,1.2,0.4,3.2,0.4,5.8v12h-9.2v-12c0-1.8-0.2-3-0.7-3.6
					c-0.5-0.7-1.3-1-2.4-1c-1.2,0-2,0.4-2.6,1.2c-0.6,0.8-0.9,1.9-0.9,3.5v12H1692.8z"/>
			</g>
		</g>
		<g transform="matrix(0.789865 0 0 1 349.414 614.189)">
			<g class="st1">
				<path class="st3" d="M-293.6-524.9v-31.4h23.8v7.9h-13.7v4.9h10.9v7.6h-10.9v11H-293.6z"/>
				<path class="st3" d="M-266.2-524.9v-31.4h9.3v31.4H-266.2z"/>
				<path class="st3" d="M-235.2-524.9l-0.6-2.2c-1.2,1-2.5,1.8-3.8,2.3c-1.4,0.5-2.9,0.7-4.6,0.7c-2.6,0-4.6-0.6-6.1-1.9
					c-1.4-1.3-2.1-3.1-2.1-5.4c0-2.3,0.7-4,2.1-5.1c1.4-1.1,4.1-1.9,8-2.4c0.5-0.1,1.2-0.1,2-0.2c2.9-0.3,4.4-1.1,4.4-2.3
					c0-0.7-0.3-1.2-0.8-1.5c-0.5-0.3-1.4-0.5-2.5-0.5c-1,0-1.7,0.2-2.2,0.6c-0.5,0.4-0.8,1-0.9,1.7h-9c0-2.6,1.1-4.6,3.2-5.9
					c2.1-1.3,5.2-2,9.2-2c1.9,0,3.7,0.2,5.3,0.5c1.6,0.4,2.9,0.8,3.8,1.4c1.1,0.7,1.9,1.6,2.3,2.5c0.4,0.9,0.7,2.3,0.7,4v12.9
					c0,0.4,0.1,0.8,0.3,1.1c0.2,0.3,0.4,0.6,0.7,0.8v0.7H-235.2z M-236.1-535.3c-0.9,0.3-2.1,0.7-3.5,1.1c-2.3,0.6-3.5,1.4-3.5,2.5
					c0,0.7,0.2,1.2,0.7,1.5s1.1,0.6,1.9,0.6c1.5,0,2.7-0.4,3.4-1.1c0.7-0.7,1.1-1.8,1.1-3.4c0-0.3,0-0.6,0-0.7
					S-236-535.1-236.1-535.3z"/>
				<path class="st3" d="M-222.8-532.2h9c0,1,0.3,1.7,0.8,2.2c0.5,0.5,1.3,0.7,2.3,0.7c1,0,1.7-0.2,2.2-0.5c0.5-0.3,0.8-0.8,0.8-1.4
					c0-1-1.1-1.8-3.4-2.3c-0.2,0-0.4-0.1-0.5-0.1c-4.3-0.9-7.2-1.9-8.5-3c-1.3-1.1-2-2.6-2-4.7c0-2.5,1-4.4,2.9-5.7
					c1.9-1.3,4.8-2,8.5-2c3.5,0,6.1,0.6,8,1.8c1.9,1.2,3,3,3.3,5.5h-8.3c-0.1-0.7-0.4-1.3-0.9-1.7c-0.5-0.4-1.2-0.6-2-0.6
					c-0.8,0-1.4,0.1-1.9,0.4c-0.4,0.3-0.6,0.7-0.6,1.2c0,0.9,1,1.6,3.1,2c0.6,0.1,1,0.2,1.3,0.3c4.2,1,6.9,2,8.2,3.1
					c1.3,1.1,1.9,2.7,1.9,4.8c0,2.7-1,4.7-3.1,6c-2.1,1.4-5.1,2-9.2,2c-3.8,0-6.6-0.7-8.6-2C-221.5-527.5-222.6-529.5-222.8-532.2z"
					/>
				<path class="st3" d="M-194.9-524.9v-31.4h9.2v10.7c0.9-1,2-1.8,3.2-2.3c1.2-0.5,2.5-0.8,3.9-0.8c1.5,0,2.8,0.2,3.9,0.7
					c1.1,0.5,2.1,1.2,2.9,2.1c0.7,0.8,1.2,1.9,1.5,3.1c0.3,1.2,0.4,3.2,0.4,5.8v12h-9.2v-12c0-1.8-0.2-3-0.7-3.6
					c-0.5-0.7-1.3-1-2.4-1c-1.2,0-2,0.4-2.6,1.2s-0.9,1.9-0.9,3.5v12H-194.9z"/>
			</g>
		</g>
		<ellipse class="st0" cx="100.6" cy="68.4" rx="11.8" ry="11.8"/>
		<path class="st4" d="M92.2,66.1v-1.5h1.9v1.5H92.2z M92.2,72v-5.4h1.9V72H92.2z M95.2,72v-5.4h1.7v0.8c0.2-0.3,0.5-0.5,0.8-0.7
			s0.6-0.2,0.9-0.2s0.6,0.1,0.8,0.2c0.2,0.1,0.4,0.3,0.6,0.5c0.1,0.2,0.2,0.4,0.3,0.7c0.1,0.3,0.1,0.7,0.1,1.4V72h-1.9v-2.8
			c0-0.4,0-0.7-0.1-0.8c-0.1-0.2-0.3-0.2-0.5-0.2s-0.4,0.1-0.5,0.3c-0.1,0.2-0.2,0.5-0.2,0.8V72H95.2L95.2,72z M107.7,69.6
			c-0.2,0.1-0.4,0.2-0.7,0.3c-0.5,0.1-0.7,0.3-0.7,0.6c0,0.2,0,0.3,0.1,0.4s0.2,0.1,0.4,0.1c0.3,0,0.6-0.1,0.7-0.2
			c0.1-0.2,0.2-0.4,0.2-0.8c0-0.1,0-0.1,0-0.2C107.7,69.7,107.7,69.6,107.7,69.6z M107.8,72l-0.1-0.5c-0.2,0.2-0.5,0.4-0.8,0.5
			s-0.6,0.2-1,0.2c-0.5,0-1-0.1-1.3-0.4s-0.4-0.7-0.4-1.3c0-0.5,0.1-0.9,0.4-1.2c0.3-0.3,0.8-0.4,1.7-0.6c0.1,0,0.2,0,0.4-0.1
			c0.6-0.1,0.9-0.2,0.9-0.5c0-0.2-0.1-0.3-0.2-0.3c-0.1-0.1-0.3-0.1-0.5-0.1s-0.4,0-0.5,0.1s-0.2,0.2-0.2,0.4h-1.9
			c0-0.6,0.2-1.1,0.7-1.4c0.4-0.3,1.1-0.5,1.9-0.5c0.4,0,0.8,0,1.1,0.1c0.3,0.1,0.6,0.2,0.8,0.3c0.2,0.2,0.4,0.4,0.5,0.6
			s0.1,0.5,0.1,0.9v3c0,0.1,0,0.2,0.1,0.3c0,0.1,0.1,0.1,0.2,0.2V72H107.8L107.8,72z"/>
		<path class="st5" d="M157,46.9c7.7,18.7,24.4,1.2,34.7-2.9C180,45.8,168.2,56.6,157,46.9z M159.7,56.4c9.3,3.2,18.3-0.3,26.5-5.1
			c13.4-7.9,22.7-8.1,25.6,8.1c-6.1-6.9-14-6.6-22.5-2.9C178.3,61.2,167.9,63.9,159.7,56.4z M213.1,59.9c0.7-1.9,0.6-4.5-0.2-7.7
			c1.3,2.3,2.2,4.7,1,8c2-3.8,0.5-6.6-1.1-9.3c0.2-0.5,0.6-0.4,1-0.3c1.7,1,3.3,2,4.3,3.4v0.3c-0.7-0.6-1.4-1.1-2.3-1.5
			c0.9,0.8,1.7,1.4,2.3,2.2v0.2c-0.7-0.1-1.4-0.4-2.2-0.6c0.7,0.5,1.4,0.8,2.2,1l0,0c0,0.1,0,0.3,0,0.4c-0.8,0.1-1.5,0-2.5,0.1
			c0.8,0.3,1.6,0.4,2.4,0.4c0,0.2,0,0.3,0,0.5c-0.8,0.3-1.6,0.6-2.5,0.9c0.8,0,1.7-0.1,2.4-0.4c0,0.2,0,0.3-0.1,0.5
			c-0.9,0.6-1.8,1-2.9,1.5c1.2-0.1,2.3-0.6,3.3-1.1h0.1v-0.1l0,0l0,0c0.3-1.8,0.3-2.8,0.2-4.3c0.8-0.5,1.1-1.3,0.9-2.5
			c-0.1,0-0.3-0.1-0.4-0.1c-0.3-1.7-1.1-3.2-2-4.6c0.6,1.4,1.2,2.9,1.5,4.5c-0.1-0.1-0.3-0.1-0.4-0.2c-0.4-1.6-1.1-3.1-2-4.5
			c0.5,1.3,1.1,2.7,1.5,4.1c-0.1-0.1-0.3-0.2-0.4-0.3c-0.4-1.4-1.1-2.8-1.9-4.1c0.4,1.2,0.9,2.4,1.3,3.6c-0.3-0.3-0.6-0.5-0.9-0.8
			c-0.4-1.1-0.9-2.1-1.6-3c0.3,0.8,0.6,1.5,0.9,2.3c-0.2-0.3-0.5-0.6-0.7-0.8c-1.2-0.6-2.4-1.1-3.6-1.6c3.7-1.7,4.4-4.7,0.7-9.7
			c2.6,4.9,1.6,7.8-1.8,9.3c-2.2-0.9-4.3-1.9-6.4-3.9c-1.6-1.5-2.2-3-2-4.2c1.5,0.1,2.7,1,3.7,2.7c-0.8-2.3-1.9-3.4-3.3-3.8
			c0.6-1,1.6-1.7,2.9-2.2c3.9-1.5,10.4-0.6,15,2.4c1.2-0.6,2.4-0.9,3.6-0.6c3.4,3.1,4.6,6.7,4.5,10.6c-0.5,0.1-1,0.2-1.6,0.3
			c1,3,1.1,6.1-0.1,9.3c-1.5-2.4-3.7-4.4-6.5-6.1c-0.1,0.4-0.2,0.8-0.3,1.2c2.8,1.1,4.8,3,6.6,5.2c-0.8,1.9-2.1,3.8-3.9,5.7
			l-0.3-0.8c0.7-0.5,1.2-1,1.7-1.8c-0.6,0.5-1.2,1-1.9,1.4l-0.1-0.3c0.7-0.5,1.3-1.1,1.9-1.8c-0.6,0.6-1.3,1-2,1.4L221,60
			c0.9-0.5,1.6-1.2,2.3-2.1c-0.8,0.7-1.5,1.2-2.4,1.6v-0.1c-1.4,0.7-2.8,0.9-4.3,0.6c-1,0.6-2,1.1-2.9,1.7
			C213.3,62.1,212.9,61.7,213.1,59.9L213.1,59.9z M205.7,38.9c1,0.7,2.1,2.5,0.8,3.4l0,0c-0.1,0.1-0.2,0.1-0.3,0.2
			c-0.2,0.1-0.4,0-0.5-0.2s0-0.4,0.2-0.5c0.1,0,0.1-0.1,0.2-0.1l0,0l0,0C206.9,41.1,206.3,39.7,205.7,38.9L205.7,38.9z M209,36.5
			c0.3,0,0.7,0.1,0.9,0.4l0,0c0.2,0.2,0.4,0.5,0.4,0.9c0,0.3-0.1,0.7-0.4,0.9l0,0c-0.2,0.2-0.5,0.4-0.9,0.4s-0.7-0.1-0.9-0.4l0,0
			c-0.2-0.2-0.4-0.5-0.4-0.9c0-0.3,0.1-0.7,0.4-0.9l0,0C208.4,36.7,208.7,36.5,209,36.5z M209.3,37.1L209.3,37.1
			c0,0.3-0.3,0.6-0.6,0.6c-0.1,0-0.2,0-0.3-0.1v0.1c0,0.2,0.1,0.4,0.2,0.5l0,0c0.1,0.1,0.3,0.2,0.5,0.2s0.4-0.1,0.5-0.2l0,0
			c0.1-0.1,0.2-0.3,0.2-0.5s-0.1-0.4-0.2-0.5l0,0C209.4,37.2,209.4,37.2,209.3,37.1L209.3,37.1z M227.7,46c-0.8-3.5-2.2-6.3-4.9-8.7
			c-0.7,0.1-1.3,0.2-2,0.3c-0.5,0.1-1,0.2-1.5,0.3c0.7,0.5,1.4,1.1,2,1.7c0.8-0.3,1.7-0.4,2.6-0.3c-0.7,0.1-1.5,0.4-2.2,0.7
			c0.2,0.2,0.4,0.4,0.5,0.6c0.7-0.2,1.6-0.3,2.3-0.2c-0.7,0.1-1.3,0.4-2,0.6c0.2,0.2,0.4,0.4,0.5,0.6c0.7-0.2,1.4-0.3,2.1-0.1
			c-0.6,0.1-1.2,0.3-1.7,0.5c0.2,0.2,0.3,0.4,0.5,0.6c0.6-0.1,1.2-0.2,1.8-0.1c-0.5,0.1-1,0.2-1.5,0.4c0.1,0.2,0.2,0.3,0.4,0.5
			c0.5-0.1,1.1-0.1,1.6,0c-0.5,0.1-0.9,0.2-1.4,0.4c0.1,0.2,0.3,0.4,0.4,0.6c0.4-0.1,0.9-0.1,1.3,0c-0.4,0.1-0.8,0.2-1.1,0.3
			c0.2,0.3,0.3,0.5,0.5,0.8c0.3,0,0.7,0,1,0c-0.3,0-0.6,0.1-0.9,0.2c0.1,0.2,0.3,0.4,0.4,0.7c-3.7-5.1-8.5-10.1-14.8-11.7
			c2.6,0.4,5,1.4,7.1,2.8c0.7-0.2,1.3-0.3,2-0.4c0.7-0.1,1.4-0.2,2.1-0.3h0.1l0.1,0.1C226,39.3,227.4,42.2,227.7,46L227.7,46z
			 M223,38.4c-0.9,0.1-1.8,0.6-2.6,0.9l-0.2-0.5C221,38.5,222,38.2,223,38.4L223,38.4z M223.4,55.6c-0.7,1.8-2.2,2.6-4.1,2.7
			C220.9,57.6,222.3,56.9,223.4,55.6z M226,53.4c-1.7-1.8-3.5-3.4-5.4-4.9C223,49.4,224.8,51.2,226,53.4z"/>
		<path class="st5" d="M85.6,88.5l0.4-3c0-0.1,0-0.2,0-0.2h-0.1h-0.1l0.1-0.5H87l0,0h1.4l0,0l-0.1,0.8l-0.1,0.8h-0.4v-0.2
			c0-0.3,0-0.5,0-0.6c-0.1-0.1-0.2-0.2-0.4-0.2h-0.5l0,0l-0.2,1.4l0,0h0.2c0.1,0,0.1,0,0.2-0.1c0,0,0.1-0.1,0.1-0.2v-0.3h0.4
			l-0.1,0.9L87.4,88H87v-0.3c0-0.1,0-0.2,0-0.2s-0.1-0.1-0.2-0.1h-0.2l0,0l-0.2,1.3c0,0.1,0,0.2,0,0.2s0.1,0,0.2,0h0.2l-0.1,0.5H86
			h-0.7l0.1-0.5h0.1c0.1,0,0.1,0,0.1,0C85.5,88.6,85.6,88.5,85.6,88.5L85.6,88.5z M88.3,88.5l0.3-2.1c0-0.1,0-0.1,0-0.2h-0.1h-0.1
			l0.1-0.5h0.3h0.3h0.2V86l0,0l0,0l0,0c0.1-0.2,0.3-0.3,0.5-0.3s0.3,0.1,0.4,0.2s0.1,0.3,0.1,0.5s-0.1,0.3-0.2,0.4S89.9,87,89.8,87
			c-0.1,0-0.2,0-0.2-0.1c-0.1-0.1-0.1-0.2-0.1-0.3c0-0.1,0.1-0.2,0.1-0.3c0.1-0.1,0.1-0.1,0.2-0.1h0.1l0,0l0,0
			c0-0.1-0.1-0.1-0.2-0.1c-0.2,0-0.3,0.1-0.4,0.3c-0.1,0.2-0.2,0.5-0.2,0.9l0,0L89,88.5c0,0.1,0,0.1,0,0.2c0,0,0.1,0,0.2,0h0.2
			l-0.1,0.5h-0.7h-0.7l0.1-0.5h0.1c0.1,0,0.1,0,0.1,0C88.3,88.6,88.3,88.6,88.3,88.5L88.3,88.5z M90.3,88.5l0.3-2.1
			c0-0.1,0-0.1,0-0.2h-0.1h-0.1l0.1-0.5h0.4h0.4h0.2L91,88.5c0,0.1,0,0.1,0,0.2h0.1h0.1l-0.1,0.5h-0.6h-0.6l0.1-0.5h0.1
			c0.1,0,0.1,0,0.1,0C90.3,88.6,90.3,88.6,90.3,88.5L90.3,88.5z M91.2,84.6c0.1,0,0.2,0,0.3,0.1c0.1,0.1,0.1,0.2,0.1,0.4
			c0,0.1-0.1,0.3-0.2,0.4s-0.2,0.1-0.3,0.1c-0.1,0-0.2,0-0.3-0.1c-0.1-0.1-0.1-0.2-0.1-0.4c0-0.1,0.1-0.3,0.2-0.4
			C90.9,84.6,91,84.6,91.2,84.6L91.2,84.6z M92.6,89.3c-0.4,0-0.6-0.2-0.7-0.5s-0.2-0.8-0.1-1.4s0.2-1,0.5-1.3
			c0.2-0.3,0.5-0.5,0.9-0.5c0.3,0,0.5,0.1,0.7,0.4c0.1,0.3,0.1,0.7,0.1,1.2v0.3l0,0h-1.3l0,0c-0.1,0.4-0.1,0.8,0,0.9
			c0,0.2,0.1,0.3,0.3,0.3c0.2,0,0.3-0.1,0.4-0.2s0.1-0.4,0.2-0.7h0.5c-0.1,0.5-0.2,0.8-0.4,1C93.2,89.1,92.9,89.3,92.6,89.3
			L92.6,89.3z M93.1,87.1L93.1,87.1c0-0.3,0.1-0.6,0-0.7c0-0.1-0.1-0.2-0.2-0.2s-0.2,0.1-0.3,0.3c0,0.1-0.1,0.3-0.1,0.7l0,0
			L93.1,87.1L93.1,87.1z M94.7,89.3c-0.3,0-0.4-0.1-0.5-0.4s-0.1-0.7,0-1.2c0.1-0.6,0.2-1.1,0.4-1.4c0.2-0.3,0.4-0.5,0.7-0.5
			c0.2,0,0.4,0.1,0.5,0.3l0,0l0.1-0.6c0-0.1,0-0.1,0-0.2c0,0,0,0-0.1,0h-0.1l0.1-0.5h0.4h0.4h0.2l-0.5,3.8c0,0.1,0,0.1,0,0.2h0.1
			h0.1l-0.1,0.5h-0.5h-0.5l0,0V89l0,0C95.2,89.1,95,89.3,94.7,89.3L94.7,89.3z M95.4,86.3c-0.1,0-0.2,0.1-0.3,0.3
			c-0.1,0.2-0.1,0.5-0.2,0.9c-0.1,0.5-0.1,0.8-0.1,1s0.1,0.3,0.2,0.3s0.2-0.1,0.3-0.2c0.1-0.2,0.1-0.4,0.2-0.7l0.1-0.5
			c0-0.3,0.1-0.6,0-0.7C95.6,86.3,95.6,86.3,95.4,86.3L95.4,86.3z M98.7,85.8c0-0.4,0.2-0.6,0.4-0.8c0.2-0.2,0.4-0.3,0.7-0.3
			c0.2,0,0.4,0.1,0.5,0.2c0.1,0.2,0.2,0.4,0.1,0.6c0,0.2-0.1,0.5-0.3,0.7c-0.1,0.2-0.3,0.4-0.6,0.6c0.1,0.4,0.2,0.7,0.3,1
			c0.1,0.2,0.1,0.3,0.2,0.5c0.1-0.1,0.1-0.2,0.2-0.4v-0.1c0.1-0.2,0.1-0.4,0.1-0.4c0-0.1-0.1-0.1-0.3-0.1h-0.1l0.1-0.5h0.6h0.6
			l-0.1,0.5H101c-0.1,0-0.1,0-0.1,0s-0.1,0.1-0.1,0.2s-0.1,0.3-0.1,0.4c-0.1,0.3-0.2,0.5-0.3,0.7v0.1l0.1,0.1h0.1
			c0.1,0,0.2-0.1,0.3-0.2c0.1-0.1,0.1-0.3,0.1-0.6h0.3c0,0.5-0.1,0.8-0.3,1c-0.1,0.2-0.4,0.3-0.6,0.3c-0.1,0-0.2,0-0.3-0.1
			c-0.1,0-0.2-0.1-0.2-0.2l-0.1,0.1c-0.2,0.1-0.4,0.2-0.7,0.2c-0.3,0-0.6-0.1-0.8-0.4c-0.2-0.2-0.2-0.6-0.2-0.9
			c0-0.2,0.1-0.5,0.3-0.7c0.1-0.2,0.3-0.4,0.6-0.6c0-0.1-0.1-0.3-0.1-0.4C98.7,86.1,98.7,85.9,98.7,85.8L98.7,85.8z M99.2,88.7
			c0.1,0,0.2,0,0.3-0.1l0,0c-0.1-0.2-0.2-0.4-0.3-0.6c-0.1-0.2-0.2-0.6-0.3-0.9c-0.1,0.1-0.1,0.1-0.2,0.2s-0.2,0.3-0.2,0.5
			c0,0.3,0,0.5,0.1,0.6C98.8,88.7,99,88.7,99.2,88.7L99.2,88.7z M99.3,85.6c0,0.1,0,0.3,0,0.4s0,0.2,0.1,0.3
			c0.1-0.1,0.3-0.2,0.3-0.3c0.1-0.2,0.2-0.3,0.2-0.5c0-0.1,0-0.2,0-0.3c0-0.1-0.1-0.1-0.2-0.1s-0.2,0-0.2,0.1
			C99.3,85.3,99.3,85.4,99.3,85.6z M104.6,86.3c0-0.4,0-0.7-0.1-0.9c-0.1-0.2-0.3-0.3-0.5-0.3c-0.1,0-0.2,0-0.3,0.1
			c-0.1,0.1-0.1,0.2-0.1,0.3c0,0.1,0,0.2,0.1,0.4c0.1,0.1,0.2,0.3,0.5,0.5s0.5,0.5,0.6,0.7s0.1,0.5,0.1,0.8
			c-0.1,0.4-0.2,0.7-0.4,0.9c-0.2,0.2-0.5,0.3-0.8,0.3s-0.6-0.1-0.7-0.5l0,0l-0.1,0.4h-0.4l0,0l0.3-1.8l0,0h0.4c0,0.5,0,0.8,0.1,1
			s0.3,0.3,0.5,0.3c0.1,0,0.2,0,0.3-0.1c0.1-0.1,0.1-0.2,0.2-0.4c0-0.2,0-0.3-0.1-0.5s-0.3-0.3-0.5-0.5c-0.3-0.2-0.5-0.5-0.6-0.7
			s-0.1-0.5-0.1-0.7c0.1-0.4,0.2-0.7,0.4-0.9c0.2-0.2,0.5-0.3,0.8-0.3s0.5,0.1,0.6,0.4l0,0l0.1-0.3h0.4l0,0l-0.2,1.7l0,0L104.6,86.3
			L104.6,86.3z M105.3,88.4l0.3-2.2l0,0h-0.3l0.1-0.5c0.2,0,0.4-0.1,0.5-0.2s0.2-0.3,0.2-0.6h0.4l-0.1,0.8l0,0h0.5l-0.1,0.5h-0.5
			l0,0l-0.3,2.1c0,0.2,0,0.3,0,0.3c0,0.1,0,0.1,0.1,0.1s0.1,0,0.1-0.1s0.1-0.2,0.1-0.3v-0.2h0.3v0.2c0,0.3-0.1,0.5-0.2,0.7
			c-0.1,0.1-0.3,0.2-0.5,0.2s-0.4-0.1-0.5-0.2C105.3,88.9,105.2,88.7,105.3,88.4L105.3,88.4z M107.8,89.3c-0.4,0-0.6-0.2-0.7-0.5
			s-0.2-0.8-0.1-1.4s0.2-1,0.5-1.3c0.2-0.3,0.5-0.5,0.9-0.5c0.3,0,0.5,0.1,0.7,0.4c0.1,0.3,0.1,0.7,0.1,1.2v0.3l0,0h-1.3l0,0
			c-0.1,0.4-0.1,0.8,0,0.9c0,0.2,0.1,0.3,0.3,0.3c0.2,0,0.3-0.1,0.4-0.2s0.1-0.4,0.2-0.7h0.5c-0.1,0.5-0.2,0.8-0.4,1
			C108.4,89.1,108.1,89.3,107.8,89.3L107.8,89.3z M108.4,87.1L108.4,87.1c0-0.3,0.1-0.6,0-0.7c0-0.1-0.1-0.2-0.2-0.2
			s-0.2,0.1-0.3,0.3c0,0.1-0.1,0.3-0.1,0.7l0,0L108.4,87.1L108.4,87.1z M109.9,89.3c-0.2,0-0.4-0.1-0.5-0.2
			c-0.1-0.2-0.2-0.4-0.1-0.6c0-0.2,0.1-0.4,0.3-0.6c0.1-0.2,0.4-0.3,0.7-0.5l0.3-0.2c0.1,0,0.1-0.1,0.1-0.1c0.1-0.1,0.1-0.1,0.2-0.2
			c0-0.1,0.1-0.2,0.1-0.3c0-0.1,0-0.2,0-0.2c-0.1-0.1-0.2-0.2-0.4-0.2c-0.2,0-0.3,0-0.4,0.1l0,0h0.1c0.1,0,0.2,0,0.2,0.1
			s0.1,0.2,0,0.3c0,0.1-0.1,0.2-0.2,0.3c-0.1,0.1-0.2,0.1-0.3,0.1c-0.1,0-0.2-0.1-0.3-0.2c-0.1-0.1-0.1-0.2-0.1-0.4
			c0-0.3,0.2-0.5,0.4-0.6c0.2-0.2,0.5-0.2,0.8-0.2s0.5,0.1,0.7,0.2c0.1,0.2,0.2,0.4,0.2,0.7l-0.2,1.6c0,0.2-0.1,0.4-0.1,0.5
			s0,0.1,0,0.1s0.1,0,0.1-0.1c0,0,0-0.1,0.1-0.2v-0.2h0.3v0.2c0,0.3-0.1,0.4-0.2,0.6c-0.1,0.1-0.3,0.2-0.5,0.2s-0.4-0.1-0.4-0.3
			c0-0.1,0-0.1,0-0.2l0,0c0,0.1-0.1,0.1-0.1,0.2C110.4,89.2,110.2,89.3,109.9,89.3L109.9,89.3z M110.7,87.9l0.1-0.5l0,0l0,0
			c-0.4,0.3-0.6,0.5-0.7,0.6s-0.1,0.2-0.2,0.4c0,0.1,0,0.2,0,0.3c0,0.1,0.1,0.1,0.2,0.1s0.2-0.1,0.3-0.2c0-0.1,0.1-0.1,0.1-0.2
			c0,0,0-0.1,0.1-0.2C110.7,88.1,110.7,88,110.7,87.9z M112.3,88.5l0.3-2.1c0-0.1,0-0.1,0-0.2h-0.1h-0.1l0.1-0.5h0.4h0.4h0.2
			l-0.1,0.5l0,0l0,0l0.1-0.1c0.2-0.3,0.5-0.4,0.7-0.4s0.3,0.1,0.4,0.2s0.1,0.2,0.1,0.3l0,0l0.1-0.1c0.2-0.3,0.5-0.4,0.8-0.4
			c0.2,0,0.3,0.1,0.4,0.2s0.1,0.3,0.1,0.5l-0.3,2.1c0,0.1,0,0.1,0,0.2h0.1h0.1l-0.1,0.5h-0.6h-0.6l0.1-0.5h0.1h0.1
			c0,0,0-0.1,0.1-0.2l0.3-1.9c0-0.1,0-0.2,0-0.2c0-0.1-0.1-0.1-0.2-0.1s-0.2,0.1-0.3,0.2c-0.1,0.2-0.2,0.4-0.2,0.7l0,0l-0.2,1.3
			c0,0.1,0,0.1,0,0.2h0.1h0.1l-0.1,0.5H114h-0.6l0.1-0.5h0.1h0.1c0,0,0-0.1,0.1-0.2l0.3-1.9c0-0.1,0-0.2,0-0.2
			c0-0.1-0.1-0.1-0.2-0.1s-0.2,0.1-0.3,0.2c-0.1,0.2-0.2,0.4-0.2,0.7l0,0l-0.2,1.3c0,0.1,0,0.1,0,0.2h0.1h0.1l-0.1,0.5h-0.6h-0.6
			l0.1-0.5h0.1c0.1,0,0.1,0,0.1,0C112.2,88.6,112.3,88.6,112.3,88.5L112.3,88.5z"/>
	</g>
</g>
</svg>
